HIERARCHY
ROOT Hips
{
	OFFSET 0.00000 0.00000 0.00000
	CHANNELS 6 Xposition Yposition Zposition Zrotation Yrotation Xrotation 
	JOINT LHipJoint
	{
		OFFSET 0 0 0
		CHANNELS 3 Zrotation Yrotation Xrotation
		JOINT LeftUpLeg
		{
			OFFSET 1.34019 -1.87553 0.90315
			CHANNELS 3 Zrotation Yrotation Xrotation
			JOINT LeftLeg
			{
				OFFSET 2.55316 -7.01474 0.00000
				CHANNELS 3 Zrotation Yrotation Xrotation
				JOINT LeftFoot
				{
					OFFSET 2.64657 -7.27139 0.00000
					CHANNELS 3 Zrotation Yrotation Xrotation
					JOINT LeftToeBase
					{
						OFFSET 0.24207 -0.66507 2.14489
						CHANNELS 3 Zrotation Yrotation Xrotation
						End Site
						{
							OFFSET 0.00000 -0.00000 1.12451
						}
					}
				}
			}
		}
	}
	JOINT RHipJoint
	{
		OFFSET 0 0 0
		CHANNELS 3 Zrotation Yrotation Xrotation
		JOINT RightUpLeg
		{
			OFFSET -1.28320 -1.87553 0.90315
			CHANNELS 3 Zrotation Yrotation Xrotation
			JOINT RightLeg
			{
				OFFSET -2.60484 -7.15674 0.00000
				CHANNELS 3 Zrotation Yrotation Xrotation
				JOINT RightFoot
				{
					OFFSET -2.60296 -7.15159 0.00000
					CHANNELS 3 Zrotation Yrotation Xrotation
					JOINT RightToeBase
					{
						OFFSET -0.31082 -0.85398 2.28998
						CHANNELS 3 Zrotation Yrotation Xrotation
						End Site
						{
							OFFSET -0.00000 -0.00000 1.21611
						}
					}
				}
			}
		}
	}
	JOINT LowerBack
	{
		OFFSET 0 0 0
		CHANNELS 3 Zrotation Yrotation Xrotation
		JOINT Spine
		{
			OFFSET -0.00160 2.05581 -0.15156
			CHANNELS 3 Zrotation Yrotation Xrotation
			JOINT Spine1
			{
				OFFSET 0.04594 2.06326 -0.01617
				CHANNELS 3 Zrotation Yrotation Xrotation
				JOINT Neck
				{
					OFFSET 0 0 0
					CHANNELS 3 Zrotation Yrotation Xrotation
					JOINT Neck1
					{
						OFFSET 0.03753 1.73883 0.26751
						CHANNELS 3 Zrotation Yrotation Xrotation
						JOINT Head
						{
							OFFSET -0.09795 1.76129 -0.31794
							CHANNELS 3 Zrotation Yrotation Xrotation
							End Site
							{
								OFFSET -0.03611 1.79987 -0.13846
							}
						}
					}
				}
				JOINT LeftShoulder
				{
					OFFSET 0 0 0
					CHANNELS 3 Zrotation Yrotation Xrotation
					JOINT LeftArm
					{
						OFFSET 3.30667 1.29205 -0.22445
						CHANNELS 3 Zrotation Yrotation Xrotation
						JOINT LeftForeArm
						{
							OFFSET 4.92785 -0.00000 -0.00000
							CHANNELS 3 Zrotation Yrotation Xrotation
							JOINT LeftHand
							{
								OFFSET 3.44052 -0.00000 0.00000
								CHANNELS 3 Zrotation Yrotation Xrotation
								JOINT LeftFingerBase
								{
									OFFSET 0 0 0
									CHANNELS 3 Zrotation Yrotation Xrotation
									JOINT LeftHandIndex1
									{
										OFFSET 0.65433 -0.00000 0.00000
										CHANNELS 3 Zrotation Yrotation Xrotation
										End Site
										{
											OFFSET 0.52753 -0.00000 0.00000
										}
									}
								}
								JOINT LThumb
								{
									OFFSET 0 0 0
									CHANNELS 3 Zrotation Yrotation Xrotation
									End Site
									{
										OFFSET 0.53559 -0.00000 0.53559
									}
								}
							}
						}
					}
				}
				JOINT RightShoulder
				{
					OFFSET 0 0 0
					CHANNELS 3 Zrotation Yrotation Xrotation
					JOINT RightArm
					{
						OFFSET -3.20032 1.49783 -0.27688
						CHANNELS 3 Zrotation Yrotation Xrotation
						JOINT RightForeArm
						{
							OFFSET -5.09181 -0.00000 -0.00000
							CHANNELS 3 Zrotation Yrotation Xrotation
							JOINT RightHand
							{
								OFFSET -3.49865 -0.00000 -0.00000
								CHANNELS 3 Zrotation Yrotation Xrotation
								JOINT RightFingerBase
								{
									OFFSET 0 0 0
									CHANNELS 3 Zrotation Yrotation Xrotation
									JOINT RightHandIndex1
									{
										OFFSET -0.66641 -0.00000 0.00000
										CHANNELS 3 Zrotation Yrotation Xrotation
										End Site
										{
											OFFSET -0.53728 -0.00000 0.00000
										}
									}
								}
								JOINT RThumb
								{
									OFFSET 0 0 0
									CHANNELS 3 Zrotation Yrotation Xrotation
									End Site
									{
										OFFSET -0.54548 -0.00000 0.54548
									}
								}
							}
						}
					}
				}
			}
		}
	}
}
MOTION
Frames: 8
Frame Time: .0083333
2.9254 18.0178 -2.9930 -4.4560 2.6348 3.2679 0.0000 0.0000 0.0000 -17.4239 -0.9314 -12.4417 2.7512 10.2809 29.8912 0.5623 5.5560 -17.2795 0.3056 -3.5542 -9.8257 0.0000 0.0000 0.0000 13.6573 0.4912 -24.8625 -5.9237 -14.3540 44.6748 -0.0433 -10.8351 -16.0584 -0.3122 3.5923 -9.9323 -4.0370 -0.0012 12.9594 0.8956 -0.4939 2.8743 3.3018 -0.2000 -4.1953 6.7915 0.4102 -20.5523 -4.0415 -0.6691 13.2648 -2.5194 -0.3632 7.3951 -0.0000 -0.0000 0.0000 -39.3526 -3.5334 -30.4741 17.5206 -27.5389 -4.3253 -0.0000 0.0000 -9.5536 20.6973 -0.7092 -0.2680 -7.1250 0.0000 -0.0000 -4.5893 29.2080 1.7715 -0.0000 -0.0000 0.0000 27.7473 -7.5027 -33.0770 -16.7865 26.5755 -3.9914 0.0000 -0.0000 -2.6769 -19.8588 -2.9958 1.0814 7.1250 -0.0000 -0.0000 5.4879 -33.1294 1.6028
2.9502 18.0119 -2.9391 -4.3238 2.3919 3.2227 0.0000 0.0000 0.0000 -17.7077 -0.8425 -12.1445 2.7448 10.2701 29.8558 0.5512 5.8906 -17.4066 0.3082 -3.5691 -9.8675 0.0000 0.0000 0.0000 13.4353 0.6647 -25.2835 -5.6866 -14.1176 43.7106 -0.0385 -10.7874 -15.9249 -0.3149 3.6074 -9.9745 -3.8359 0.0970 12.9509 1.0861 -0.3280 2.8772 3.3614 -0.1196 -4.2024 6.7370 0.3890 -20.5540 -4.3638 -0.6245 13.2475 -2.6128 -0.3770 7.3909 0.0000 -0.0000 0.0000 -39.1452 -3.4916 -30.3690 17.6367 -27.6894 -4.3791 -0.0000 0.0000 -9.6668 20.6769 -0.7264 -0.2741 -7.1250 0.0000 -0.0000 -4.6044 29.1897 1.7793 0.0000 -0.0000 0.0000 28.2104 -7.1647 -33.0001 -16.7395 26.5130 -3.9703 0.0000 -0.0000 -2.5817 -19.9321 -2.9172 1.0573 7.1250 -0.0000 -0.0000 5.4221 -33.0484 1.5940
2.9739 18.0065 -2.8855 -4.1686 2.1489 3.1798 0.0000 0.0000 0.0000 -18.0111 -0.7387 -11.8438 2.7335 10.2507 29.7923 0.5389 6.2004 -17.5086 0.3126 -3.5942 -9.9377 0.0000 0.0000 0.0000 13.1865 0.8320 -25.6896 -5.4545 -13.8780 42.7509 -0.0273 -10.7319 -15.6871 -0.3189 3.6298 -10.0375 -3.6546 0.1904 12.9457 1.2585 -0.1719 2.8830 3.4147 -0.0439 -4.2070 6.6806 0.3695 -20.6034 -4.6745 -0.5815 13.2860 -2.7036 -0.3903 7.4132 0.0000 0.0000 0.0000 -38.9652 -3.4352 -30.2474 17.7645 -27.8545 -4.4386 -0.0000 0.0000 -9.7935 20.6672 -0.7382 -0.2784 -7.1250 0.0000 -0.0000 -4.6115 29.1772 1.7834 0.0000 0.0000 0.0000 28.6730 -6.7943 -32.9455 -16.6797 26.4336 -3.9437 0.0000 -0.0000 -2.4776 -20.0029 -2.8850 1.0496 7.1250 -0.0000 -0.0000 5.3622 -33.0164 1.5805
2.9962 18.0017 -2.8323 -3.9916 1.9078 3.1396 0.0000 0.0000 0.0000 -18.3300 -0.6174 -11.5431 2.7174 10.2228 29.7014 0.5259 6.4764 -17.5813 0.3174 -3.6218 -10.0149 0.0000 0.0000 0.0000 12.9145 0.9997 -26.0830 -5.2281 -13.6362 41.7992 -0.0105 -10.6827 -15.3694 -0.3247 3.6623 -10.1285 -3.5024 0.2796 12.9493 1.4199 -0.0260 2.8934 3.4748 0.0269 -4.2108 6.6547 0.3731 -20.6995 -5.0167 -0.5130 13.3330 -2.8076 -0.3934 7.4478 0.0000 -0.0000 0.0000 -38.8157 -3.3728 -30.1420 17.8923 -28.0190 -4.4985 -0.0000 0.0000 -9.8481 20.6358 -0.7730 -0.2911 -7.1250 0.0000 -0.0000 -4.6345 29.1401 1.7965 0.0000 -0.0000 0.0000 29.1270 -6.3947 -32.9336 -16.6017 26.3298 -3.9091 0.0000 -0.0000 -2.3150 -20.0484 -2.8115 1.0255 7.1250 -0.0000 -0.0000 5.3196 -32.9398 1.5777
3.0166 17.9976 -2.7788 -3.7992 1.6770 3.0953 0.0000 0.0000 0.0000 -18.6547 -0.4756 -11.2342 2.6969 10.1874 29.5856 0.5136 6.7077 -17.6313 0.3221 -3.6480 -10.0883 0.0000 0.0000 0.0000 12.6307 1.1537 -26.4521 -5.0076 -13.3924 40.8556 0.0099 -10.6486 -15.0111 -0.3299 3.6916 -10.2106 -3.3727 0.3684 12.9526 1.5754 0.1161 2.9165 3.5417 0.0956 -4.2007 6.6106 0.3736 -20.8454 -5.3520 -0.4465 13.4074 -2.9077 -0.3984 7.5001 -0.0000 0.0000 0.0000 -38.6931 -3.3428 -30.0597 18.0115 -28.1718 -4.5546 -0.0000 0.0000 -9.8595 20.6075 -0.8331 -0.3132 -7.1250 0.0000 -0.0000 -4.6539 29.0761 1.8111 -0.0000 0.0000 0.0000 29.5714 -5.9781 -32.9719 -16.5064 26.2024 -3.8668 0.0000 -0.0000 -2.1113 -20.1056 -2.7319 0.9996 7.1250 -0.0000 -0.0000 5.2671 -32.8572 1.5726
3.0349 17.9941 -2.7251 -3.5949 1.4590 3.0538 0.0000 0.0000 0.0000 -18.9783 -0.3078 -10.9298 2.6722 10.1445 29.4459 0.5027 6.8851 -17.6552 0.3258 -3.6686 -10.1461 0.0000 0.0000 0.0000 12.3427 1.2973 -26.8059 -4.7937 -13.1476 39.9235 0.0331 -10.6491 -14.6464 -0.3360 3.7250 -10.3042 -3.2713 0.4586 12.9579 1.7290 0.2561 2.9376 3.6231 0.1637 -4.1938 6.6454 0.3984 -20.9301 -5.7741 -0.3517 13.4039 -3.0449 -0.3947 7.5184 -0.0000 -0.0000 0.0000 -38.5924 -3.3194 -29.9429 18.1258 -28.3179 -4.6087 -0.0000 0.0000 -9.8749 20.5935 -0.8613 -0.3236 -7.1250 0.0000 -0.0000 -4.6635 29.0462 1.8182 -0.0000 -0.0000 0.0000 30.0044 -5.5806 -33.0142 -16.4038 26.0651 -3.8217 0.0000 -0.0000 -1.9018 -20.1607 -2.6153 0.9598 7.1250 -0.0000 -0.0000 5.2137 -32.7350 1.5719
3.0508 17.9914 -2.6707 -3.3790 1.2649 3.0106 0.0000 0.0000 0.0000 -19.2987 -0.1208 -10.6224 2.6439 10.0949 29.2847 0.4943 7.0052 -17.6611 0.3289 -3.6858 -10.1945 0.0000 0.0000 0.0000 12.0520 1.4220 -27.1369 -4.5865 -12.9024 39.0042 0.0572 -10.6831 -14.3042 -0.3404 3.7491 -10.3718 -3.1975 0.5470 12.9552 1.8830 0.3904 2.9665 3.7217 0.2288 -4.1743 6.5849 0.3911 -21.0358 -6.1150 -0.2874 13.4344 -3.1439 -0.4027 7.5503 -0.0000 0.0000 0.0000 -38.5178 -3.3177 -29.8191 18.2312 -28.4522 -4.6589 -0.0000 0.0000 -9.8688 20.5963 -0.8696 -0.3268 -7.1250 0.0000 -0.0000 -4.6611 29.0373 1.8183 -0.0000 0.0000 0.0000 30.4284 -5.2180 -33.0407 -16.3018 25.9281 -3.7769 0.0000 -0.0000 -1.6954 -20.2006 -2.4603 0.9049 7.1250 -0.0000 -0.0000 5.1698 -32.5717 1.5791
3.0643 17.9893 -2.6157 -3.1494 1.1011 2.9697 0.0000 0.0000 0.0000 -19.6188 0.0782 -10.3134 2.6122 10.0391 29.1034 0.4880 7.0753 -17.6483 0.3316 -3.7009 -10.2367 0.0000 0.0000 0.0000 11.7567 1.5183 -27.4545 -4.3873 -12.6586 38.1037 0.0798 -10.7408 -14.0113 -0.3447 3.7726 -10.4379 -3.1546 0.6358 12.9444 2.0382 0.5213 2.9895 3.8397 0.2928 -4.1568 6.5332 0.3734 -21.0490 -6.4675 -0.2346 13.3722 -3.2470 -0.4163 7.5356 0.0000 0.0000 0.0000 -38.4644 -3.3318 -29.6631 18.3244 -28.5705 -4.7033 -0.0000 0.0000 -9.8678 20.6150 -0.8519 -0.3204 -7.1250 0.0000 -0.0000 -4.6473 29.0562 1.8108 0.0000 0.0000 0.0000 30.8404 -4.9089 -33.0140 -16.2091 25.8034 -3.7365 0.0000 -0.0000 -1.5467 -20.2454 -2.3543 0.8680 7.1250 -0.0000 -0.0000 5.1259 -32.4605 1.5794
